name D:\school\WTK\thesis\model\3dpredictsim\Results\test_WL_v2\Fal_s1_bCst_PF_Natali2010_ls135_k_nonl90_kmtp_ig23.mot
datacolumns 128
datarows 4
range 0.00000000 0.03479165
endheader
time	pelvis_tilt	pelvis_list	pelvis_rotation	pelvis_tx	pelvis_ty	pelvis_tz	hip_flexion_l	hip_adduction_l	hip_rotation_l	hip_flexion_r	hip_adduction_r	hip_rotation_r	knee_angle_l	knee_angle_r	ankle_angle_l	ankle_angle_r	subtalar_angle_l	subtalar_angle_r	tmt_angle_l	tmt_angle_r	mtp_angle_l	mtp_angle_r	lumbar_extension	lumbar_bending	lumbar_rotation	arm_flex_l	arm_add_l	arm_rot_l	arm_flex_r	arm_add_r	arm_rot_r	elbow_flex_l	elbow_flex_r	pro_sup_l	pro_sup_r	glut_med1_l/activation	glut_med2_l/activation	glut_med3_l/activation	glut_min1_l/activation	glut_min2_l/activation	glut_min3_l/activation	semimem_l/activation	semiten_l/activation	bifemlh_l/activation	bifemsh_l/activation	sar_l/activation	add_long_l/activation	add_brev_l/activation	add_mag1_l/activation	add_mag2_l/activation	add_mag3_l/activation	tfl_l/activation	pect_l/activation	grac_l/activation	glut_max1_l/activation	glut_max2_l/activation	glut_max3_l/activation	iliacus_l/activation	psoas_l/activation	quad_fem_l/activation	gem_l/activation	peri_l/activation	rect_fem_l/activation	vas_med_l/activation	vas_int_l/activation	vas_lat_l/activation	med_gas_l/activation	lat_gas_l/activation	soleus_l/activation	tib_post_l/activation	flex_dig_l/activation	flex_hal_l/activation	tib_ant_l/activation	per_brev_l/activation	per_long_l/activation	per_tert_l/activation	ext_dig_l/activation	ext_hal_l/activation	ercspn_l/activation	intobl_l/activation	extobl_l/activation	glut_med1_r/activation	glut_med2_r/activation	glut_med3_r/activation	glut_min1_r/activation	glut_min2_r/activation	glut_min3_r/activation	semimem_r/activation	semiten_r/activation	bifemlh_r/activation	bifemsh_r/activation	sar_r/activation	add_long_r/activation	add_brev_r/activation	add_mag1_r/activation	add_mag2_r/activation	add_mag3_r/activation	tfl_r/activation	pect_r/activation	grac_r/activation	glut_max1_r/activation	glut_max2_r/activation	glut_max3_r/activation	iliacus_r/activation	psoas_r/activation	quad_fem_r/activation	gem_r/activation	peri_r/activation	rect_fem_r/activation	vas_med_r/activation	vas_int_r/activation	vas_lat_r/activation	med_gas_r/activation	lat_gas_r/activation	soleus_r/activation	tib_post_r/activation	flex_dig_r/activation	flex_hal_r/activation	tib_ant_r/activation	per_brev_r/activation	per_long_r/activation	per_tert_r/activation	ext_dig_r/activation	ext_hal_r/activation	ercspn_r/activation	intobl_r/activation	extobl_r/activation	
          0.00000000	         -2.92931968	         -1.95918778	          6.10866624	          0.00000000	          0.92001357	         -0.00275292	        -16.63343863	         -1.01982323	          6.38585082	         28.64610641	          3.29265881	         -2.23710893	        -10.32565371	        -10.68376190	         -1.24034346	          7.54315935	          9.45137336	         -3.56058623	         -2.39909734	         -4.39307992	         25.75877217	         -0.06497813	         -1.44082232	          0.10655526	         -2.04514507	          4.56564180	        -13.47443389	         16.74673499	         -5.86068049	        -13.45032334	          9.15936247	         35.58796694	         14.98799465	         86.51662706	         86.51662706	          0.27955405	          0.07516612	          0.05571992	          0.26209293	          0.15733795	          0.08450106	          0.05000322	          0.05000056	          0.05000060	          0.05000057	          0.08407677	          0.11777048	          0.13555334	          0.05106643	          0.05000950	          0.05000283	          0.23951959	          0.09615839	          0.05005121	          0.05000320	          0.05000194	          0.05000171	          0.32380942	          0.49045312	          0.05000098	          0.05001119	          0.05966400	          0.21013577	          0.05000072	          0.16534464	          0.14447327	          0.21287767	          0.29053709	          0.24723690	          0.21378566	          0.18690939	          0.25069263	          0.05000004	          0.05852023	          0.11858475	          0.05000021	          0.05000008	          0.05000020	          0.05000012	          0.07918265	          0.07493149	          0.05000018	          0.05000015	          0.05000017	          0.05000071	          0.05000046	          0.05000024	          0.10807551	          0.05000242	          0.12939769	          0.05000218	          0.05966491	          0.12096846	          0.25888580	          0.29308700	          0.19096060	          0.07809487	          0.05000015	          0.07129503	          0.11334466	          0.05000066	          0.05000145	          0.11987770	          0.07119643	          0.07119576	          0.55582099	          0.18018305	          0.18086727	          0.08495663	          0.20931442	          0.20988922	          0.17812593	          0.05000003	          0.05000007	          0.05000000	          0.05000255	          0.05000331	          0.05000192	          0.57653905	          0.21898556	          0.19750743	          0.23155222	          0.52957150	          0.06131793	          0.05000002	          0.10706065	          0.08985247	
          0.01159722	         -2.92425353	         -2.03140914	          6.33922144	          0.01804889	          0.91922866	         -0.00257226	        -16.51482117	         -1.32046662	          6.13468126	         27.86003444	          3.60045525	         -1.97323241	        -12.19212871	        -11.09825714	         -1.97547878	          6.97077022	         10.37495675	         -3.91576971	         -3.53760680	         -4.58773349	         26.97220946	         -0.11348804	         -1.20679574	          0.30713723	         -2.11158679	          4.16316425	        -13.49244076	         17.01311276	         -6.88967027	        -13.45220484	          8.95346334	         36.78994139	         14.75524114	         86.51662706	         86.51662706	          0.39098387	          0.06299085	          0.05000014	          0.21964010	          0.13185267	          0.07081377	          0.05000436	          0.05000085	          0.05000053	          0.05000029	          0.07045845	          0.14685058	          0.22031078	          0.05966505	          0.05966396	          0.05972295	          0.20072284	          0.08058906	          0.05000289	          0.05000754	          0.05000637	          0.05001657	          0.27135939	          0.47885485	          0.05000055	          0.05000076	          0.05000011	          0.17609830	          0.11557394	          0.13856301	          0.12107220	          0.17839605	          0.24347633	          0.20718982	          0.17915702	          0.15663421	          0.21008591	          0.06670990	          0.05000112	          0.15718564	          0.05000057	          0.10566360	          0.05000530	          0.05441651	          0.06635676	          0.06279428	          0.28215660	          0.05000052	          0.17749881	          0.05000038	          0.05000041	          0.28370317	          0.11362681	          0.10088541	          0.12200101	          0.05000009	          0.05000090	          0.10137425	          0.21695202	          0.24561338	          0.16002972	          0.11408012	          0.05000141	          0.05974782	          0.09498652	          0.05000126	          0.06751330	          0.10046025	          0.05966429	          0.05966376	          0.46578993	          0.15099734	          0.15181520	          0.07119549	          0.17541005	          0.17589174	          0.14927342	          0.05708732	          0.05849398	          0.05778246	          0.05000012	          0.05000049	          0.05000053	          0.54349354	          0.32655309	          0.16652753	          0.19404580	          0.61406561	          0.05138576	          0.05000002	          0.11830355	          0.07529831	
          0.02319443	         -2.91670555	         -2.10945774	          6.53260916	          0.03622080	          0.91838894	         -0.00238693	        -16.32201302	         -1.61981443	          5.88142188	         26.95686405	          3.84818467	         -1.70902145	        -14.16846507	        -11.45274070	         -2.77712848	          6.39324636	         11.24192664	         -4.28054313	         -4.68791224	         -4.51774936	         27.77375179	         -0.16872717	         -0.97304946	          0.52198033	         -2.16682622	          3.70731613	        -13.51355398	         17.20702922	         -7.89888325	        -13.46183277	          8.82266497	         37.97713330	         14.53171454	         86.51662706	         86.51662706	          0.32765320	          0.05278773	          0.05000007	          0.30849539	          0.11049548	          0.05934357	          0.05000145	          0.05000014	          0.05000013	          0.05000016	          0.05904692	          0.14492445	          0.18462548	          0.05000108	          0.05000205	          0.05005066	          0.16821049	          0.06753732	          0.05000033	          0.05000129	          0.05000079	          0.05000055	          0.22740506	          0.43722010	          0.05000008	          0.05000048	          0.05000028	          0.14757419	          0.11714554	          0.11667276	          0.10553726	          0.14949972	          0.20403840	          0.17362951	          0.15013751	          0.13126300	          0.17605663	          0.10885985	          0.11895226	          0.13557262	          0.17667430	          0.16665864	          0.12097469	          0.07448425	          0.05560840	          0.05262297	          0.34069020	          0.29578456	          0.34710308	          0.15625048	          0.24239679	          0.23775251	          0.09522175	          0.08567440	          0.10223952	          0.08495725	          0.05000201	          0.08495384	          0.18181050	          0.20582952	          0.13410904	          0.13871596	          0.05000056	          0.05007038	          0.09496050	          0.21391660	          0.16204847	          0.13002842	          0.05000012	          0.05000011	          0.39034202	          0.12653919	          0.14749999	          0.05966338	          0.14699761	          0.14740137	          0.12509451	          0.05000022	          0.05000049	          0.05000005	          0.05000017	          0.05000055	          0.05000068	          0.64349067	          0.34640877	          0.18861167	          0.48123619	          0.56932981	          0.28901752	          0.07287182	          0.09914095	          0.06310161	
          0.03479165	         -2.90716688	         -2.18327932	          6.69054541	          0.05425810	          0.91754692	         -0.00216412	        -16.00411100	         -1.90277803	          5.63352846	         26.08482141	          4.09848715	         -1.44680105	        -16.32257577	        -11.86972502	         -3.64939658	          5.91306240	         12.02609716	         -4.65008025	         -5.67711665	         -4.57308628	         27.82862671	         -0.19663732	         -0.76185955	          0.73895980	         -2.21417572	          3.25166527	        -13.54137056	         17.36758998	         -8.83760333	        -13.47219776	          8.76350363	         39.10487348	         14.29196286	         86.51662706	         86.51662706	          0.27458078	          0.05000023	          0.05000015	          0.25852608	          0.09259773	          0.05000044	          0.05067498	          0.05966237	          0.05966393	          0.05000061	          0.05000202	          0.16438344	          0.20220926	          0.11825751	          0.05006795	          0.11787718	          0.14096507	          0.05660076	          0.05000523	          0.05000413	          0.05000278	          0.05000226	          0.19057037	          0.40280249	          0.05000028	          0.05000093	          0.05000028	          0.12367035	          0.09817053	          0.09777433	          0.08844253	          0.12528397	          0.17098858	          0.14550526	          0.12581899	          0.11000160	          0.14753956	          0.16466120	          0.11088912	          0.13277159	          0.15952707	          0.20411423	          0.10137993	          0.09722035	          0.05000003	          0.05000004	          0.42658829	          0.38790734	          0.43928313	          0.22550254	          0.20313520	          0.32054063	          0.08392313	          0.09917032	          0.09267438	          0.07119608	          0.05000038	          0.07119325	          0.15236133	          0.20131622	          0.22076613	          0.16859928	          0.05000030	          0.05002798	          0.08495655	          0.26586181	          0.20436918	          0.17671047	          0.05000015	          0.05000014	          0.32711505	          0.10604274	          0.23078880	          0.05000006	          0.20485333	          0.20932927	          0.17080686	          0.05000003	          0.05000007	          0.05000001	          0.05000003	          0.05000020	          0.05000017	          0.71051509	          0.29029811	          0.15806068	          0.57176582	          0.65360547	          0.32509236	          0.09245849	          0.08308227	          0.05288052	
